<svg xmlns="http://www.w3.org/2000/svg" viewBox="0 0 32 32"><title>46-List</title><g id="_46-List" data-name="46-List"><path d="M25,0H7A7,7,0,0,0,0,7V25a7,7,0,0,0,7,7H25a7,7,0,0,0,7-7V7A7,7,0,0,0,25,0Zm5,25a5,5,0,0,1-5,5H7a5,5,0,0,1-5-5V7A5,5,0,0,1,7,2H25a5,5,0,0,1,5,5Z"/><rect x="7" y="7" width="4" height="4" rx="1" ry="1"/><rect x="7" y="14" width="4" height="4" rx="1" ry="1"/><rect x="7" y="21" width="4" height="4" rx="1" ry="1"/><rect x="13" y="8" width="12" height="2"/><rect x="13" y="15" width="12" height="2"/><rect x="13" y="22" width="12" height="2"/></g></svg>