<svg id="Layer_1" data-name="Layer 1" xmlns="http://www.w3.org/2000/svg" viewBox="0 0 128 128"><title>CALENDAR</title><path d="M113.854,22.323h-9.667V19.646a7.25,7.25,0,0,0-14.5,0v2.677H38.313V19.646a7.25,7.25,0,0,0-14.5,0v2.677H14.146a1.75,1.75,0,0,0-1.75,1.75v89.781a1.751,1.751,0,0,0,1.75,1.75h99.708a1.751,1.751,0,0,0,1.75-1.75V24.073A1.75,1.75,0,0,0,113.854,22.323ZM93.187,19.646a3.75,3.75,0,0,1,7.5,0V28.5a3.75,3.75,0,0,1-7.5,0Zm-65.874,0a3.75,3.75,0,0,1,7.5,0V28.5a3.75,3.75,0,0,1-7.5,0Zm-3.5,6.177V28.5a7.25,7.25,0,0,0,14.5,0V25.823H89.687V28.5a7.25,7.25,0,0,0,14.5,0V25.823H112.1V44.2H15.9V25.823ZM15.9,112.1V47.7H112.1v64.4Z"/><path d="M40.2,56H31.479a1.749,1.749,0,0,0-1.75,1.75v8.719a1.749,1.749,0,0,0,1.75,1.75H40.2a1.749,1.749,0,0,0,1.75-1.75V57.75A1.749,1.749,0,0,0,40.2,56Zm-1.75,8.719H33.229V59.5h5.218Z"/><path d="M58.972,56H50.253a1.75,1.75,0,0,0-1.75,1.75v8.719a1.75,1.75,0,0,0,1.75,1.75h8.719a1.75,1.75,0,0,0,1.75-1.75V57.75A1.75,1.75,0,0,0,58.972,56Zm-1.75,8.719H52V59.5h5.219Z"/><path d="M77.747,56H69.028a1.75,1.75,0,0,0-1.75,1.75v8.719a1.75,1.75,0,0,0,1.75,1.75h8.719a1.749,1.749,0,0,0,1.75-1.75V57.75A1.749,1.749,0,0,0,77.747,56ZM76,64.719H70.778V59.5H76Z"/><path d="M96.521,56H87.8a1.749,1.749,0,0,0-1.75,1.75v8.719a1.749,1.749,0,0,0,1.75,1.75h8.718a1.749,1.749,0,0,0,1.75-1.75V57.75A1.749,1.749,0,0,0,96.521,56Zm-1.75,8.719H89.553V59.5h5.218Z"/><path d="M40.2,74H31.479a1.749,1.749,0,0,0-1.75,1.75v8.719a1.749,1.749,0,0,0,1.75,1.75H40.2a1.749,1.749,0,0,0,1.75-1.75V75.75A1.749,1.749,0,0,0,40.2,74Zm-1.75,8.719H33.229V77.5h5.218Z"/><path d="M58.972,74H50.253a1.75,1.75,0,0,0-1.75,1.75v8.719a1.75,1.75,0,0,0,1.75,1.75h8.719a1.75,1.75,0,0,0,1.75-1.75V75.75A1.75,1.75,0,0,0,58.972,74Zm-1.75,8.719H52V77.5h5.219Z"/><path d="M77.747,74H69.028a1.75,1.75,0,0,0-1.75,1.75v8.719a1.75,1.75,0,0,0,1.75,1.75h8.719a1.749,1.749,0,0,0,1.75-1.75V75.75A1.749,1.749,0,0,0,77.747,74ZM76,82.719H70.778V77.5H76Z"/><path d="M96.521,74H87.8a1.749,1.749,0,0,0-1.75,1.75v8.719a1.749,1.749,0,0,0,1.75,1.75h8.718a1.749,1.749,0,0,0,1.75-1.75V75.75A1.749,1.749,0,0,0,96.521,74Zm-1.75,8.719H89.553V77.5h5.218Z"/><path d="M40.2,92H31.479a1.749,1.749,0,0,0-1.75,1.75v8.719a1.749,1.749,0,0,0,1.75,1.75H40.2a1.749,1.749,0,0,0,1.75-1.75V93.75A1.749,1.749,0,0,0,40.2,92Zm-1.75,8.719H33.229V95.5h5.218Z"/><path d="M58.972,92H50.253a1.75,1.75,0,0,0-1.75,1.75v8.719a1.75,1.75,0,0,0,1.75,1.75h8.719a1.75,1.75,0,0,0,1.75-1.75V93.75A1.75,1.75,0,0,0,58.972,92Zm-1.75,8.719H52V95.5h5.219Z"/><path d="M77.747,92H69.028a1.75,1.75,0,0,0-1.75,1.75v8.719a1.75,1.75,0,0,0,1.75,1.75h8.719a1.749,1.749,0,0,0,1.75-1.75V93.75A1.749,1.749,0,0,0,77.747,92ZM76,100.719H70.778V95.5H76Z"/><path d="M96.521,92H87.8a1.749,1.749,0,0,0-1.75,1.75v8.719a1.749,1.749,0,0,0,1.75,1.75h8.718a1.749,1.749,0,0,0,1.75-1.75V93.75A1.749,1.749,0,0,0,96.521,92Zm-1.75,8.719H89.553V95.5h5.218Z"/></svg>