<svg xmlns="http://www.w3.org/2000/svg" viewBox="0 0 24 24"><title>47.World</title><g id="_47.World" data-name="47.World"><path d="M12,24A12,12,0,1,1,24,12,12.013,12.013,0,0,1,12,24ZM12,2A10,10,0,1,0,22,12,10.011,10.011,0,0,0,12,2Z"/><polygon points="4.707 19.707 3.293 18.293 4.586 17 6.586 17 8 15.586 8 11.764 9 9.764 9 8.236 8.382 7 6.697 7 3.445 4.832 4.555 3.168 7.303 5 9.618 5 11 7.764 11 10.236 10 12.236 10 16.414 7.414 19 5.414 19 4.707 19.707"/><polygon points="16.293 22.707 13 19.414 13 17.586 15 15.586 15 15.236 14 13.236 14 10.586 16.178 8.408 16.882 7 15.882 5 17.105 2.553 18.895 3.447 18.118 5 19.118 7 17.822 9.592 16 11.414 16 12.764 17 14.764 17 16.414 15 18.414 15 18.586 17.707 21.293 16.293 22.707"/></g></svg>