<?xml version="1.0" encoding="utf-8"?>
<!-- Generator: Adobe Illustrator 16.0.0, SVG Export Plug-In . SVG Version: 6.00 Build 0)  -->
<!DOCTYPE svg PUBLIC "-//W3C//DTD SVG 1.1//EN" "http://www.w3.org/Graphics/SVG/1.1/DTD/svg11.dtd">
<svg version="1.1" id="Layer_1" xmlns="http://www.w3.org/2000/svg" xmlns:xlink="http://www.w3.org/1999/xlink" x="0px" y="0px"
	 width="32px" height="32px" viewBox="0 0 32 32" enable-background="new 0 0 32 32" xml:space="preserve">
<path fill-rule="evenodd" clip-rule="evenodd" d="M29.368,17.352l-6.131,6.138l-0.002,0.002l-5.999,6.005
	c-0.682,0.682-1.789,0.682-2.471,0l-6.001-6.005l-0.002-0.002l-6.132-6.138c-3.508-3.513-3.508-9.207,0-12.718
	c3.509-3.512,9.199-3.512,12.708,0l0.177,0.178c0.258,0.253,0.666,0.262,0.939,0.031l0.208-0.209c3.508-3.512,9.196-3.512,12.705,0
	C32.877,8.145,32.877,13.839,29.368,17.352L29.368,17.352z M9.01,6.014c-2.761,0-4.998,2.238-4.998,4.998
	c0,0.553,0.447,1.002,0.999,1.002s0.999-0.449,0.999-1.002h0.015c0-1.504,1.119-2.806,2.649-2.979
	C8.787,8.021,8.898,8.029,9.01,8.029V8.015c0.552,0,0.999-0.449,0.999-1.002C10.009,6.461,9.562,6.014,9.01,6.014L9.01,6.014z"/>
</svg>
