<svg width="30" height="30" viewBox="0 0 24 24" fill="none" xmlns="http://www.w3.org/2000/svg">
<path fill-rule="evenodd" clip-rule="evenodd" d="M7.95 5C5.75673 5 4 6.75279 4 8.88889C4 9.92933 4.41383 10.8744 5.09348 11.5748L11.9999 18.5759L18.7811 11.6992C18.7879 11.6922 18.7949 11.6854 18.8019 11.6786C19.5436 10.9693 20 9.98135 20 8.88889C20 6.75279 18.2433 5 16.05 5C15.5739 5 15.0164 5.26668 14.3962 5.81606C13.7916 6.35152 13.2503 7.04624 12.8142 7.65781C12.6266 7.92101 12.3233 8.07726 12 8.07726C11.6767 8.07726 11.3734 7.92101 11.1858 7.65781C10.7497 7.04624 10.2084 6.35152 9.60383 5.81606C8.98357 5.26668 8.42611 5 7.95 5ZM2 8.88889C2 5.62487 4.67565 3 7.95 3C9.14803 3 10.1677 3.64375 10.9299 4.31889C11.3224 4.66655 11.6815 5.05364 12 5.43468C12.3185 5.05364 12.6776 4.66655 13.0701 4.31889C13.8323 3.64375 14.852 3 16.05 3C19.3243 3 22 5.62487 22 8.88889C22 10.5479 21.3057 12.0459 20.1953 13.1134L12.712 20.7021C12.5241 20.8927 12.2677 21 12.0001 21C11.7325 21 11.476 20.8928 11.2881 20.7023L3.66177 12.9714C2.63491 11.915 2 10.4752 2 8.88889Z" fill="black"></path>
</svg>