<svg xmlns="http://www.w3.org/2000/svg" viewBox="0 0 24 24" height="30" width="30"><title>Horizontal Setting</title><g id="Horizontal_Setting" data-name="Horizontal Setting"><path d="M2,5H3.18A3,3,0,0,0,8.82,5H22a1,1,0,0,0,0-2H8.82A3,3,0,0,0,3.18,3H2A1,1,0,0,0,2,5ZM6,3A1,1,0,0,1,6,5,1,1,0,0,1,6,3Z"></path><path d="M21.82,11a3,3,0,0,0-5.64,0H2a1,1,0,0,0,0,2H16.18a3,3,0,0,0,5.64,0A1,1,0,1,0,21.82,11ZM19,13a1,1,0,0,1,0-2A1,1,0,0,1,19,13Z"></path><path d="M22,19H14.82a3,3,0,0,0-5.64,0H2a1,1,0,0,0,0,2H9.18a3,3,0,0,0,5.64,0H22A1,1,0,0,0,22,19ZM12,21a1,1,0,0,1,0-2A1,1,0,0,1,12,21Z"></path></g></svg>