<?xml version="1.0" encoding="iso-8859-1"?>
<!-- Generator: Adobe Illustrator 19.0.0, SVG Export Plug-In . SVG Version: 6.00 Build 0)  -->
<svg version="1.1" id="Layer_1" xmlns="http://www.w3.org/2000/svg" xmlns:xlink="http://www.w3.org/1999/xlink" x="0px" y="0px"
	 viewBox="0 0 460.003 460.003" style="enable-background:new 0 0 460.003 460.003;" xml:space="preserve">
<g>
	<g>
		<path d="M455.608,4.394c-4.192-4.192-10.459-5.521-15.99-3.394L9.616,166.376c-5.624,2.163-9.409,7.482-9.607,13.505
			c-0.199,6.023,3.225,11.58,8.694,14.11l175.93,81.379l81.379,175.93c2.46,5.318,7.782,8.703,13.612,8.703
			c0.165,0,0.332-0.003,0.498-0.008c6.023-0.199,11.342-3.983,13.505-9.607L459.002,20.385C461.13,14.852,459.8,8.585,455.608,4.394
			z M278.354,406.523l-68.807-148.751c-0.747-1.615-1.769-3.07-3.008-4.309L418.887,41.116L278.354,406.523z"/>
	</g>
</g>
<g>
</g>
<g>
</g>
<g>
</g>
<g>
</g>
<g>
</g>
<g>
</g>
<g>
</g>
<g>
</g>
<g>
</g>
<g>
</g>
<g>
</g>
<g>
</g>
<g>
</g>
<g>
</g>
<g>
</g>
</svg>
