<?xml version="1.0" encoding="iso-8859-1"?>
<!-- Generator: Adobe Illustrator 19.0.0, SVG Export Plug-In . SVG Version: 6.00 Build 0)  -->
<svg version="1.1" id="Capa_1" xmlns="http://www.w3.org/2000/svg" xmlns:xlink="http://www.w3.org/1999/xlink" x="0px" y="0px"
	 viewBox="0 0 490 490" style="enable-background:new 0 0 490 490;" xml:space="preserve">
<g>
	<rect x="312.56" y="313.896" width="30.625" height="54.581"/>
	<rect x="312.56" y="216.803" width="30.625" height="54.566"/>
	<path d="M326.664,105.585L178.666,10.177V8.641h-2.383l-13.403-8.64L0,82.979V490L163.334,388.18l149.227,93.026v0.365h0.586
		l13.52,8.428l14.039-8.428h2.48v-1.488L490,391.949V0.001L326.669,105.585H326.664z M459.375,56.264v318.349l-116.19,69.75v-33.359
		H312.56v34.113l-133.026-82.926l-0.868-0.541v-47.59h-30.625v47.565l-0.908,0.566L30.625,434.821V101.748L148.041,41.93V77.33
		h30.625V46.614l131.408,84.713l2.487,1.604v41.344h30.625v-42.899l0.107-0.069L459.375,56.264z"/>
	<rect x="148.041" y="216.96" width="30.625" height="54.573"/>
	<rect x="148.041" y="119.858" width="30.625" height="54.573"/>
</g>
<g>
</g>
<g>
</g>
<g>
</g>
<g>
</g>
<g>
</g>
<g>
</g>
<g>
</g>
<g>
</g>
<g>
</g>
<g>
</g>
<g>
</g>
<g>
</g>
<g>
</g>
<g>
</g>
<g>
</g>
</svg>
