<svg xmlns="http://www.w3.org/2000/svg" width="42.181" height="48" viewBox="0 0 42.181 48">
  <g>
    <path d="M41.455,0H.727A.726.726,0,0,0,0,.727V26.909C0,38.495,19.944,47.557,20.792,47.936a.721.721,0,0,0,.594,0c.849-.379,20.8-9.441,20.8-21.027V.727A.725.725,0,0,0,41.455,0Zm-.728,26.908c0,9.924-17.151,18.389-19.637,19.563C18.6,45.3,1.455,36.84,1.455,26.908V1.453H40.727Z" fill="#1a171b"/>
    <path d="M10.182,25.473H32a.726.726,0,0,0,.727-.727V22.17a4.126,4.126,0,0,0-2.46-3.711,18.712,18.712,0,0,0-2.65-1c-.382-.113-.768-.221-1.157-.313l-.019-.006a2.636,2.636,0,0,1-1.985-1.92c0-.021-.007-.049-.01-.076a6.862,6.862,0,0,0,2.1-5.049,5.318,5.318,0,0,0-5.454-5.658A5.319,5.319,0,0,0,15.637,10.1a6.859,6.859,0,0,0,2.095,5.043c-.007.059-.014.111-.022.15a2.551,2.551,0,0,1-1.965,1.852c-.4.1-.794.205-1.187.322a18.4,18.4,0,0,0-2.646,1,4.122,4.122,0,0,0-2.457,3.7v2.58A.727.727,0,0,0,10.182,25.473ZM17.091,10.1a3.847,3.847,0,0,1,4-4.205,3.848,3.848,0,0,1,4,4.205c0,2.734-1.794,4.961-4,4.961S17.091,12.832,17.091,10.1ZM19,16.023a4.692,4.692,0,0,0,4.175,0,3.957,3.957,0,0,0,1.589,1.951c-.378.635-1.747,1.365-3.677,1.365-1.961,0-3.31-.715-3.681-1.352A3.892,3.892,0,0,0,19,16.023Zm-8.1,6.143a2.683,2.683,0,0,1,1.624-2.391,17.037,17.037,0,0,1,2.439-.918c.366-.109.728-.209,1.108-.3h0c.638,1.3,2.6,2.236,5.01,2.236s4.364-.934,5-2.238v0c.373.086.741.189,1.1.3a16.959,16.959,0,0,1,2.443.918,2.69,2.69,0,0,1,1.627,2.4v1.85H10.907V22.166Z" fill="#1a171b"/>
    <path d="M10.182,30.322H32a.728.728,0,0,0,0-1.456H10.182a.728.728,0,0,0,0,1.456Z" fill="#1a171b"/>
    <path d="M10.182,35.172h15.03a.728.728,0,0,0,0-1.456H10.182a.728.728,0,0,0,0,1.456Z" fill="#1a171b"/>
  </g>
</svg>
