<svg id="Layer_1" data-name="Layer 1" xmlns="http://www.w3.org/2000/svg" viewBox="0 0 128 128"><title>NEWS</title><path d="M121.5,4.75H24.192a1.75,1.75,0,0,0-1.75,1.75V22.442H6.5a1.75,1.75,0,0,0-1.75,1.75v88.462a10.608,10.608,0,0,0,10.6,10.6h97.308a10.607,10.607,0,0,0,10.6-10.6V6.5A1.75,1.75,0,0,0,121.5,4.75Zm-106.154,115a7.1,7.1,0,0,1-7.1-7.1V25.942h93.808v86.712a10.554,10.554,0,0,0,2.733,7.1Zm104.4-7.1a7.1,7.1,0,0,1-14.192,0V24.192a1.75,1.75,0,0,0-1.75-1.75H25.942V8.25H119.75Z"/><polygon points="19.376 41.91 27.097 51.391 29.236 51.391 29.236 37.391 26.657 37.391 26.657 46.871 18.937 37.391 16.796 37.391 16.796 51.391 19.376 51.391 19.376 41.91"/><polygon points="44.497 49.211 36.597 49.211 36.597 45.351 43.357 45.351 43.357 43.211 36.597 43.211 36.597 39.57 44.217 39.57 44.217 37.391 33.997 37.391 33.997 51.391 44.497 51.391 44.497 49.211"/><polygon points="54.277 51.391 57.797 41.03 61.257 51.391 64.017 51.391 68.657 37.391 66.178 37.391 62.597 48.091 59.057 37.391 56.657 37.391 53.037 48.03 49.557 37.391 46.857 37.391 51.497 51.391 54.277 51.391"/><path d="M78.447,48.931a4.342,4.342,0,0,1-2.33.5,7.684,7.684,0,0,1-2.51-.43,7.11,7.11,0,0,1-2.11-1.11l-.9,2.02a6.506,6.506,0,0,0,2.39,1.221,10.681,10.681,0,0,0,3.13.46,7.777,7.777,0,0,0,3.12-.561,4.281,4.281,0,0,0,1.91-1.5,3.686,3.686,0,0,0,.63-2.1,3.136,3.136,0,0,0-.71-2.16,4.381,4.381,0,0,0-1.71-1.189,18.731,18.731,0,0,0-2.56-.75q-1.141-.28-1.8-.5a3.119,3.119,0,0,1-1.09-.6,1.245,1.245,0,0,1-.43-.979,1.6,1.6,0,0,1,.75-1.38,4.051,4.051,0,0,1,2.29-.521,7.185,7.185,0,0,1,1.939.28,8.124,8.124,0,0,1,1.921.819l.819-2.02a6.944,6.944,0,0,0-2.14-.92,10.071,10.071,0,0,0-2.521-.32,7.7,7.7,0,0,0-3.109.561,4.265,4.265,0,0,0-1.9,1.51,3.738,3.738,0,0,0-.63,2.11,3.2,3.2,0,0,0,.71,2.189,4.27,4.27,0,0,0,1.7,1.19,21.006,21.006,0,0,0,2.59.76q1.14.28,1.8.5a3,3,0,0,1,1.09.61,1.276,1.276,0,0,1,.431.989A1.514,1.514,0,0,1,78.447,48.931Z"/><path d="M92.808,62.46H17.5a1.75,1.75,0,0,0,0,3.5H92.808a1.75,1.75,0,0,0,0-3.5Z"/><path d="M92.808,76.9H17.5a1.75,1.75,0,0,0,0,3.5H92.808a1.75,1.75,0,0,0,0-3.5Z"/><path d="M92.808,105.794H17.5a1.75,1.75,0,0,0,0,3.5H92.808a1.75,1.75,0,0,0,0-3.5Z"/><path d="M92.808,91.35H17.5a1.75,1.75,0,0,0,0,3.5H92.808a1.75,1.75,0,0,0,0-3.5Z"/></svg>