<svg xmlns="http://www.w3.org/2000/svg" viewBox="0 0 123.57 112.07"><defs><style>.cls-1{fill:#333;}.cls-2,.cls-3{fill:none;stroke:#333;stroke-linecap:round;stroke-miterlimit:10;}.cls-2{stroke-width:4px;}.cls-3{stroke-width:2px;}</style></defs><title>General - Ordered List</title><g id="Layer_2" data-name="Layer 2"><g id="General_-_Ordered_List" data-name="General - Ordered List"><g id="General_-_Ordered_list-2" data-name="General - Ordered list"><path class="cls-1" d="M11.67,18.1a2,2,0,0,1-2,2,2.07,2.07,0,0,1-2-2v-14H4.73a1.94,1.94,0,0,1-1.45-.61A2,2,0,0,1,2.69,2a2,2,0,0,1,2-2h4.9a2,2,0,0,1,1.44.59A2,2,0,0,1,11.67,2Z"/><path class="cls-1" d="M3.77,54.11a2,2,0,0,1-1.43.6,2,2,0,0,1-1.45-.6A2,2,0,0,1,.3,52.67a6.46,6.46,0,0,1,2-4.72A6.44,6.44,0,0,1,7,46a6.42,6.42,0,0,1,4.71,2,6.47,6.47,0,0,1,2,4.72q0,3.46-1.8,5a10.82,10.82,0,0,1-4.08,1.78,9,9,0,0,0-2,.75,3.3,3.3,0,0,0-1.4,1.82h7.56a2,2,0,0,1,2,2,2,2,0,0,1-2,2H2a2,2,0,0,1-1.45-.6A2,2,0,0,1,0,64.1q0-4.44,2.12-6.43a11.27,11.27,0,0,1,4.56-2.1,6.25,6.25,0,0,0,2-.8,2.77,2.77,0,0,0,.11-3.94A2.48,2.48,0,0,0,7,50.08a2.56,2.56,0,0,0-2.59,2.59A1.94,1.94,0,0,1,3.77,54.11Z"/><path class="cls-1" d="M2.09,112.07a2,2,0,0,1-1.44-.54,1.64,1.64,0,0,1-.6-1.28A1.68,1.68,0,0,1,.65,109a2,2,0,0,1,1.44-.53H5.53c1.81,0,3-.62,3.61-1.86a3.1,3.1,0,0,0,.3-1.35,3.25,3.25,0,0,0-.31-1.36C8.52,102.6,7.31,102,5.47,102H4.1a2.08,2.08,0,0,1-1.44-.53,1.68,1.68,0,0,1-.6-1.3,1.66,1.66,0,0,1,.75-1.4l3.63-3H2.26a2,2,0,0,1-1.44-.54,1.64,1.64,0,0,1-.6-1.28,1.61,1.61,0,0,1,.6-1.27,2,2,0,0,1,1.44-.54h9.22a2.09,2.09,0,0,1,1.58.56,1.68,1.68,0,0,1,.56,1.31A1.73,1.73,0,0,1,13,95.21L8.66,98.82a6.88,6.88,0,0,1,4.21,3.61,6.5,6.5,0,0,1,0,5.56,6.76,6.76,0,0,1-2.66,2.9,9,9,0,0,1-4.69,1.18Z"/><line class="cls-2" x1="29.57" y1="7.07" x2="121.57" y2="7.07"/><line class="cls-3" x1="28.57" y1="16.07" x2="88.57" y2="16.07"/><line class="cls-2" x1="29.57" y1="99.07" x2="121.57" y2="99.07"/><line class="cls-3" x1="28.57" y1="108.07" x2="88.57" y2="108.07"/><line class="cls-2" x1="29.57" y1="53.07" x2="121.57" y2="53.07"/><line class="cls-3" x1="28.57" y1="62.07" x2="88.57" y2="62.07"/></g></g></g></svg>