<?xml version="1.0" encoding="iso-8859-1"?>
<!-- Generator: Adobe Illustrator 19.0.0, SVG Export Plug-In . SVG Version: 6.00 Build 0)  -->
<svg version="1.1" id="Layer_1" xmlns="http://www.w3.org/2000/svg" xmlns:xlink="http://www.w3.org/1999/xlink" x="0px" y="0px"
	 viewBox="0 0 512.001 512.001" style="enable-background:new 0 0 512.001 512.001;" xml:space="preserve">
<g>
	<g>
		<path d="M256.001,65.465c-67.881,0-123.105,55.225-123.105,123.105c0,67.88,55.225,123.104,123.105,123.104
			S379.106,256.45,379.106,188.57C379.106,120.69,323.881,65.465,256.001,65.465z M256.001,296.466
			c-59.494,0-107.896-48.401-107.896-107.895c0-59.494,48.402-107.897,107.896-107.897s107.896,48.402,107.896,107.896
			C363.897,248.064,315.495,296.466,256.001,296.466z"/>
	</g>
</g>
<g>
	<g>
		<path d="M440.219,201.726l-22.918-35.659l11.943-40.67c2.95-10.044-2.008-20.897-11.529-25.245l-38.558-17.608l-11.941-40.672
			c-2.948-10.042-12.983-16.498-23.348-15.004l-41.956,6.033L269.878,5.142c-7.911-6.855-19.842-6.857-27.754,0L210.09,32.901
			l-41.956-6.033c-10.361-1.49-20.399,4.961-23.348,15.004l-11.941,40.672l-38.558,17.608c-9.523,4.348-14.479,15.201-11.53,25.245
			l11.943,40.67l-22.918,35.659c-5.659,8.807-3.96,20.616,3.95,27.471l32.035,27.757v42.387
			c-0.001,10.468,7.812,19.486,18.175,20.976l41.956,6.032l1.221,1.9v176.147c0,2.604,1.332,5.028,3.533,6.422
			c2.199,1.396,4.96,1.568,7.315,0.455l76.076-35.886l78.306,35.92c1.011,0.463,2.092,0.693,3.17,0.693
			c1.435,0,2.862-0.405,4.106-1.205c2.18-1.398,3.499-3.81,3.499-6.401V326.202l40.934-5.885
			c10.362-1.49,18.176-10.507,18.175-20.975l-0.001-42.388l32.036-27.757C444.18,222.342,445.878,210.533,440.219,201.726z
			 M346.033,41.922c2.923-0.418,5.758,1.4,6.591,4.235l7.151,24.358c-11.491-10.113-24.461-18.58-38.544-25.027L346.033,41.922z
			 M252.084,16.636c2.234-1.935,5.601-1.935,7.834,0l18.839,16.324c-7.432-1.082-15.028-1.653-22.757-1.653
			c-7.727,0-15.323,0.571-22.756,1.653L252.084,16.636z M159.379,46.157c0.751-2.561,3.137-4.295,5.749-4.295
			c0.278,0,0.56,0.02,0.842,0.061l24.803,3.566c-14.083,6.446-27.054,14.914-38.545,25.026L159.379,46.157z M85.693,217.702
			c-2.233-1.934-2.712-5.267-1.115-7.755l14.17-22.048c-0.001,0.224-0.008,0.446-0.008,0.67c0,16.19,2.462,31.815,7.026,46.524
			L85.693,217.702z M104.627,145.891l-7.277-24.779c-0.832-2.835,0.567-5.897,3.255-7.125l23.283-10.633
			C115.477,116.347,108.929,130.651,104.627,145.891z M128.106,305.262c-2.924-0.42-5.13-2.965-5.13-5.92v-26.986
			c8.773,13.879,19.654,26.294,32.193,36.797L128.106,305.262z M248.396,462.18l-64.068,30.221V351.915h0.001l6.485,10.092
			c3.992,6.212,10.86,9.715,17.904,9.714c2.943,0,5.919-0.612,8.726-1.894l30.952-14.136V462.18z M188.791,330.726
			c14.677,6.968,30.592,11.733,47.323,13.854l-24.989,11.413c-2.685,1.23-5.918,0.28-7.515-2.207L188.791,330.726z M329.917,492.542
			l-66.312-30.419V355.691l30.952,14.136c9.522,4.351,20.97,0.988,26.63-7.819l8.73-13.584V492.542z M275.886,344.58
			c16.733-2.121,32.649-6.888,47.325-13.854l-14.82,23.06c-1.597,2.486-4.828,3.437-7.516,2.207L275.886,344.58z M383.896,305.262
			l-27.064,3.89c12.539-10.502,23.421-22.918,32.193-36.797l0.001,26.986C389.025,302.298,386.821,304.842,383.896,305.262z
			 M256.001,330.624c-78.328,0-142.054-63.725-142.054-142.054S177.673,46.518,256.001,46.518s142.054,63.725,142.054,142.054
			S334.33,330.624,256.001,330.624z M388.113,103.353l23.284,10.633c2.689,1.228,4.088,4.29,3.255,7.125l-7.277,24.779
			C403.072,130.651,396.523,116.347,388.113,103.353z M426.309,217.703l-20.072,17.392c4.565-14.709,7.026-30.335,7.026-46.524
			c0-0.224-0.007-0.446-0.008-0.669l14.17,22.047C429.022,212.435,428.542,215.769,426.309,217.703z"/>
	</g>
</g>
<g>
	<g>
		<path d="M312.343,160.638H200.363c-4.2,0-7.604,3.404-7.604,7.604c0,4.201,3.405,7.604,7.604,7.604h111.979
			c4.2,0,7.604-3.404,7.604-7.604C319.947,164.042,316.543,160.638,312.343,160.638z"/>
	</g>
</g>
<g>
	<g>
		<path d="M312.343,195.851H200.363c-4.2,0-7.604,3.404-7.604,7.604c0,4.201,3.405,7.604,7.604,7.604h111.979
			c4.2,0,7.604-3.404,7.604-7.604C319.947,199.255,316.543,195.851,312.343,195.851z"/>
	</g>
</g>
<g>
	<g>
		<path d="M292.975,227.28H219.73c-4.2,0-7.604,3.404-7.604,7.604c0,4.201,3.405,7.604,7.604,7.604h73.244
			c4.2,0,7.604-3.404,7.604-7.604C300.579,230.684,297.174,227.28,292.975,227.28z"/>
	</g>
</g>
<g>
	<g>
		<path d="M292.976,127.979h-73.244c-4.2,0-7.604,3.404-7.604,7.604c0,4.201,3.404,7.604,7.604,7.604h73.244
			c4.2,0,7.604-3.404,7.604-7.604C300.58,131.382,297.175,127.979,292.976,127.979z"/>
	</g>
</g>
<g>
</g>
<g>
</g>
<g>
</g>
<g>
</g>
<g>
</g>
<g>
</g>
<g>
</g>
<g>
</g>
<g>
</g>
<g>
</g>
<g>
</g>
<g>
</g>
<g>
</g>
<g>
</g>
<g>
</g>
</svg>
