<svg id="Layer_1" data-name="Layer 1" xmlns="http://www.w3.org/2000/svg" viewBox="0 0 128 128"><title>SCALE</title><path d="M113.854,61.24h-1.98l-10.014-20.5A4.4,4.4,0,0,0,101.114,32H70.875V30.792A6.848,6.848,0,0,0,68.68,25.77a7.51,7.51,0,1,0-9.36,0,6.848,6.848,0,0,0-2.2,5.022V32H26.886a4.4,4.4,0,0,0-.746,8.745L16.126,61.24h-1.98a1.75,1.75,0,0,0-1.75,1.75,16.511,16.511,0,0,0,33.021,0,1.749,1.749,0,0,0-1.75-1.75H41.686L31.709,40.82H57.125v48.1H51.667a9.76,9.76,0,0,0-9.584,8h-4.25a1.749,1.749,0,0,0-1.75,1.75v15.187a1.75,1.75,0,0,0,1.75,1.75H90.167a1.75,1.75,0,0,0,1.75-1.75V98.667a1.749,1.749,0,0,0-1.75-1.75h-4.25a9.76,9.76,0,0,0-9.584-8H70.875V40.82H96.291L86.314,61.24H84.333a1.749,1.749,0,0,0-1.75,1.75,16.511,16.511,0,0,0,33.021,0A1.75,1.75,0,0,0,113.854,61.24ZM59.99,19.907A4.01,4.01,0,1,1,64,23.917,4.015,4.015,0,0,1,59.99,19.907ZM28.906,76A13.029,13.029,0,0,1,16.014,64.74H41.8A13.031,13.031,0,0,1,28.906,76ZM20.021,61.24l8.885-18.183L37.791,61.24Zm6.865-23.92a.91.91,0,0,1,0-1.82H57.125v1.82ZM88.417,112.1H39.583V100.417H88.417ZM82.329,96.917H45.671a6.257,6.257,0,0,1,6-4.5H76.333A6.257,6.257,0,0,1,82.329,96.917Zm-21.7-8V30.792a3.375,3.375,0,0,1,6.75,0V88.917ZM70.875,35.5h30.239a.91.91,0,0,1,0,1.82H70.875Zm28.219,7.557,8.885,18.183H90.209Zm0,32.943A13.031,13.031,0,0,1,86.2,64.74h25.786A13.029,13.029,0,0,1,99.094,76Z"/></svg>