<svg xmlns="http://www.w3.org/2000/svg" viewBox="0 0 48 48" height="30" width="30"><defs><style>.cls-1{fill:#201602;}</style></defs><title>Asset 31ldpi</title><g id="Layer_2" data-name="Layer 2"><g id="layer_1-2" data-name="layer 1"><rect class="cls-1" x="5" y="12" width="4" height="2"></rect><rect class="cls-1" x="5" y="6" width="4" height="2"></rect><rect class="cls-1" x="5" y="18" width="4" height="2"></rect><rect class="cls-1" x="5" y="24" width="4" height="2"></rect><rect class="cls-1" x="5" y="30" width="4" height="2"></rect><rect class="cls-1" x="5" y="36" width="4" height="2"></rect><rect class="cls-1" x="4" width="2" height="48"></rect><rect class="cls-1" y="42" width="48" height="2"></rect><rect class="cls-1" x="43" y="32" width="2" height="11"></rect><rect class="cls-1" x="43" width="2" height="30"></rect><rect class="cls-1" x="37" y="11" width="2" height="32"></rect><rect class="cls-1" x="31" y="27" width="2" height="16"></rect><rect class="cls-1" x="31" y="6" width="2" height="19"></rect><rect class="cls-1" x="25" y="21" width="2" height="22"></rect><rect class="cls-1" x="19" y="34" width="2" height="9"></rect><rect class="cls-1" x="19" y="14" width="2" height="18"></rect><rect class="cls-1" x="13" y="26" width="2" height="17"></rect></g></g></svg>